<svg width="55" height="61" viewBox="0 0 55 61" fill="none" xmlns="http://www.w3.org/2000/svg">
<g clip-path="url(#clip0_2882_1925)">
<path d="M19.082 4.06667C19.082 2.25926 20.0173 0.903704 21.8881 0H33.1126C34.9833 0.903704 35.9187 2.25926 35.9187 4.06667L54.1585 10.8444C55.0939 12.6519 55.0939 14.9111 54.1585 17.6222L51.3524 23.0444C50.417 24.8519 49.4816 25.3037 48.5462 24.4V58.2889C48.5462 60.0963 47.1432 61 44.3371 61H10.6636C7.85746 61 6.4544 60.0963 6.4544 58.2889V24.4C5.51903 25.3037 4.58365 24.8519 3.64828 23.0444L0.842156 17.6222C-0.0932185 14.9111 -0.0932185 12.6519 0.842156 10.8444L19.082 4.06667ZM21.8881 0C25.6296 3.61481 29.3711 3.61481 33.1126 0H21.8881Z" fill="#FF0000"/>
<path d="M16.2754 8.1333V61H38.7244V8.1333C31.2414 11.7481 23.7584 11.7481 16.2754 8.1333Z" fill="#0000FF"/>
</g>
<defs>
<clipPath id="clip0_2882_1925">
<rect width="55" height="61" fill="white"/>
</clipPath>
</defs>
</svg>
