<svg width="26" height="26" viewBox="0 0 26 26" fill="none" xmlns="http://www.w3.org/2000/svg">
<path d="M21.1066 9.68081C19.2061 9.68081 18.4291 8.33681 19.3741 6.68831C19.9201 5.73281 19.5946 4.51481 18.6391 3.96881L16.8226 2.92931C15.9931 2.43581 14.9221 2.72981 14.4286 3.55931L14.3131 3.75881C13.3681 5.40731 11.8141 5.40731 10.8586 3.75881L10.7431 3.55931C10.2706 2.72981 9.19956 2.43581 8.37006 2.92931L6.55356 3.96881C5.59806 4.51481 5.27256 5.74331 5.81856 6.69881C6.77406 8.33681 5.99706 9.68081 4.09656 9.68081C3.00456 9.68081 2.10156 10.5733 2.10156 11.6758V13.5238C2.10156 14.6158 2.99406 15.5188 4.09656 15.5188C5.99706 15.5188 6.77406 16.8628 5.81856 18.5113C5.27256 19.4668 5.59806 20.6848 6.55356 21.2308L8.37006 22.2703C9.19956 22.7638 10.2706 22.4698 10.7641 21.6403L10.8796 21.4408C11.8246 19.7923 13.3786 19.7923 14.3341 21.4408L14.4496 21.6403C14.9431 22.4698 16.0141 22.7638 16.8436 22.2703L18.6601 21.2308C19.6156 20.6848 19.9411 19.4563 19.3951 18.5113C18.4396 16.8628 19.2166 15.5188 21.1171 15.5188C22.2091 15.5188 23.1121 14.6263 23.1121 13.5238V11.6758C23.1016 10.5838 22.2091 9.68081 21.1066 9.68081ZM12.6016 16.0123C10.7221 16.0123 9.18906 14.4793 9.18906 12.5998C9.18906 10.7203 10.7221 9.18731 12.6016 9.18731C14.4811 9.18731 16.0141 10.7203 16.0141 12.5998C16.0141 14.4793 14.4811 16.0123 12.6016 16.0123Z" fill="white"/>
</svg>
