<svg width="26" height="26" viewBox="0 0 26 26" fill="none" xmlns="http://www.w3.org/2000/svg">
<path d="M12.6016 2.09961C6.81606 2.09961 2.10156 6.81411 2.10156 12.5996C2.10156 18.3851 6.81606 23.0996 12.6016 23.0996C18.3871 23.0996 23.1016 18.3851 23.1016 12.5996C23.1016 6.81411 18.3871 2.09961 12.6016 2.09961ZM17.6206 10.1846L11.6671 16.1381C11.5201 16.2851 11.3206 16.3691 11.1106 16.3691C10.9006 16.3691 10.7011 16.2851 10.5541 16.1381L7.58256 13.1666C7.27806 12.8621 7.27806 12.3581 7.58256 12.0536C7.88706 11.7491 8.39106 11.7491 8.69556 12.0536L11.1106 14.4686L16.5076 9.07161C16.8121 8.76711 17.3161 8.76711 17.6206 9.07161C17.9251 9.37611 17.9251 9.86961 17.6206 10.1846Z" fill="white"/>
</svg>
