<svg width="26" height="26" viewBox="0 0 26 26" fill="none" xmlns="http://www.w3.org/2000/svg">
<path d="M5.25039 10.5C4.09539 10.5 3.15039 11.445 3.15039 12.6C3.15039 13.755 4.09539 14.7 5.25039 14.7C6.40539 14.7 7.35039 13.755 7.35039 12.6C7.35039 11.445 6.40539 10.5 5.25039 10.5Z" stroke="white" stroke-width="0.525"/>
<path d="M19.9496 10.5C18.7946 10.5 17.8496 11.445 17.8496 12.6C17.8496 13.755 18.7946 14.7 19.9496 14.7C21.1046 14.7 22.0496 13.755 22.0496 12.6C22.0496 11.445 21.1046 10.5 19.9496 10.5Z" stroke="white" stroke-width="0.525"/>
<path d="M12.6 10.5C11.445 10.5 10.5 11.445 10.5 12.6C10.5 13.755 11.445 14.7 12.6 14.7C13.755 14.7 14.7 13.755 14.7 12.6C14.7 11.445 13.755 10.5 12.6 10.5Z" stroke="white" stroke-width="0.525"/>
</svg>
