<svg width="26" height="26" viewBox="0 0 26 26" fill="none" xmlns="http://www.w3.org/2000/svg">
<path d="M22.0508 23.0999H3.15078C2.72028 23.0999 2.36328 22.7429 2.36328 22.3124C2.36328 21.8819 2.72028 21.5249 3.15078 21.5249H22.0508C22.4813 21.5249 22.8383 21.8819 22.8383 22.3124C22.8383 22.7429 22.4813 23.0999 22.0508 23.0999Z" fill="white"/>
<path d="M19.9721 3.65395C17.9351 1.61695 15.9401 1.56445 13.8506 3.65395L12.5801 4.92445C12.4751 5.02945 12.4331 5.19745 12.4751 5.34445C13.2731 8.12695 15.4991 10.3529 18.2816 11.1509C18.3236 11.1614 18.3656 11.1719 18.4076 11.1719C18.5231 11.1719 18.6281 11.1299 18.7121 11.0459L19.9721 9.77545C21.0116 8.74645 21.5156 7.74895 21.5156 6.74095C21.5261 5.70145 21.0221 4.69345 19.9721 3.65395Z" fill="white"/>
<path d="M16.3919 12.1065C16.0874 11.9595 15.7934 11.8125 15.5099 11.6445C15.2789 11.508 15.0584 11.361 14.8379 11.2035C14.6594 11.088 14.4494 10.92 14.2499 10.752C14.2289 10.7415 14.1554 10.6785 14.0714 10.5945C13.7249 10.3005 13.3364 9.92254 12.9899 9.50254C12.9584 9.48154 12.9059 9.40804 12.8324 9.31354C12.7274 9.18754 12.5489 8.97754 12.3914 8.73604C12.2654 8.57854 12.1184 8.34754 11.9819 8.11654C11.8139 7.83304 11.6669 7.54954 11.5199 7.25554C11.4162 7.03326 11.3281 6.81621 11.2484 6.60808C11.2028 6.48894 11.0496 6.45536 10.9594 6.54557L4.55841 12.9465C4.42191 13.083 4.29591 13.3455 4.26441 13.524L3.69741 17.5455C3.59241 18.2595 3.79191 18.9315 4.23291 19.383C4.61091 19.7505 5.13591 19.95 5.70291 19.95C5.82891 19.95 5.95491 19.9395 6.08091 19.9185L10.1129 19.3515C10.3019 19.32 10.5644 19.194 10.6904 19.0575L17.0889 12.6591C17.1797 12.5682 17.1451 12.4135 17.0252 12.3673C16.8199 12.2884 16.6137 12.2027 16.3919 12.1065Z" fill="white"/>
</svg>
