<svg width="26" height="26" viewBox="0 0 26 26" fill="none" xmlns="http://www.w3.org/2000/svg">
<path d="M17.5881 3.738V2.1C17.5881 1.6695 17.2311 1.3125 16.8006 1.3125C16.3701 1.3125 16.0131 1.6695 16.0131 2.1V3.675H9.18813V2.1C9.18813 1.6695 8.83113 1.3125 8.40063 1.3125C7.97013 1.3125 7.61313 1.6695 7.61313 2.1V3.738C4.77813 4.0005 3.40263 5.691 3.19263 8.2005C3.17163 8.505 3.42363 8.757 3.71763 8.757H21.4836C21.7881 8.757 22.0401 8.4945 22.0086 8.2005C21.7986 5.691 20.4231 4.0005 17.5881 3.738Z" fill="white"/>
<path d="M21.0004 10.332H4.20039C3.62289 10.332 3.15039 10.8045 3.15039 11.382V17.85C3.15039 21 4.72539 23.1 8.40039 23.1H16.8004C20.4754 23.1 22.0504 21 22.0504 17.85V11.382C22.0504 10.8045 21.5779 10.332 21.0004 10.332ZM9.67089 19.1205C9.61839 19.1625 9.56589 19.215 9.51339 19.2465C9.45039 19.2885 9.38739 19.32 9.32439 19.341C9.26139 19.3725 9.19839 19.3935 9.13539 19.404C9.06189 19.4145 8.99889 19.425 8.92539 19.425C8.78889 19.425 8.65239 19.3935 8.52639 19.341C8.38989 19.2885 8.28489 19.215 8.17989 19.1205C7.99089 18.921 7.87539 18.648 7.87539 18.375C7.87539 18.102 7.99089 17.829 8.17989 17.6295C8.28489 17.535 8.38989 17.4615 8.52639 17.409C8.71539 17.325 8.92539 17.304 9.13539 17.346C9.19839 17.3565 9.26139 17.3775 9.32439 17.409C9.38739 17.43 9.45039 17.4615 9.51339 17.5035C9.56589 17.5455 9.61839 17.5875 9.67089 17.6295C9.85989 17.829 9.97539 18.102 9.97539 18.375C9.97539 18.648 9.85989 18.921 9.67089 19.1205ZM9.67089 15.4455C9.47139 15.6345 9.19839 15.75 8.92539 15.75C8.65239 15.75 8.37939 15.6345 8.17989 15.4455C7.99089 15.246 7.87539 14.973 7.87539 14.7C7.87539 14.427 7.99089 14.154 8.17989 13.9545C8.47389 13.6605 8.93589 13.566 9.32439 13.734C9.46089 13.7865 9.57639 13.86 9.67089 13.9545C9.85989 14.154 9.97539 14.427 9.97539 14.7C9.97539 14.973 9.85989 15.246 9.67089 15.4455ZM13.3459 19.1205C13.1464 19.3095 12.8734 19.425 12.6004 19.425C12.3274 19.425 12.0544 19.3095 11.8549 19.1205C11.6659 18.921 11.5504 18.648 11.5504 18.375C11.5504 18.102 11.6659 17.829 11.8549 17.6295C12.2434 17.241 12.9574 17.241 13.3459 17.6295C13.5349 17.829 13.6504 18.102 13.6504 18.375C13.6504 18.648 13.5349 18.921 13.3459 19.1205ZM13.3459 15.4455C13.2934 15.4875 13.2409 15.5295 13.1884 15.5715C13.1254 15.6135 13.0624 15.645 12.9994 15.666C12.9364 15.6975 12.8734 15.7185 12.8104 15.729C12.7369 15.7395 12.6739 15.75 12.6004 15.75C12.3274 15.75 12.0544 15.6345 11.8549 15.4455C11.6659 15.246 11.5504 14.973 11.5504 14.7C11.5504 14.427 11.6659 14.154 11.8549 13.9545C11.9494 13.86 12.0649 13.7865 12.2014 13.734C12.5899 13.566 13.0519 13.6605 13.3459 13.9545C13.5349 14.154 13.6504 14.427 13.6504 14.7C13.6504 14.973 13.5349 15.246 13.3459 15.4455ZM17.0209 19.1205C16.8214 19.3095 16.5484 19.425 16.2754 19.425C16.0024 19.425 15.7294 19.3095 15.5299 19.1205C15.3409 18.921 15.2254 18.648 15.2254 18.375C15.2254 18.102 15.3409 17.829 15.5299 17.6295C15.9184 17.241 16.6324 17.241 17.0209 17.6295C17.2099 17.829 17.3254 18.102 17.3254 18.375C17.3254 18.648 17.2099 18.921 17.0209 19.1205ZM17.0209 15.4455C16.9684 15.4875 16.9159 15.5295 16.8634 15.5715C16.8004 15.6135 16.7374 15.645 16.6744 15.666C16.6114 15.6975 16.5484 15.7185 16.4854 15.729C16.4119 15.7395 16.3384 15.75 16.2754 15.75C16.0024 15.75 15.7294 15.6345 15.5299 15.4455C15.3409 15.246 15.2254 14.973 15.2254 14.7C15.2254 14.427 15.3409 14.154 15.5299 13.9545C15.6349 13.86 15.7399 13.7865 15.8764 13.734C16.0654 13.65 16.2754 13.629 16.4854 13.671C16.5484 13.6815 16.6114 13.7025 16.6744 13.734C16.7374 13.755 16.8004 13.7865 16.8634 13.8285C16.9159 13.8705 16.9684 13.9125 17.0209 13.9545C17.2099 14.154 17.3254 14.427 17.3254 14.7C17.3254 14.973 17.2099 15.246 17.0209 15.4455Z" fill="white"/>
</svg>
