<svg width="26" height="26" viewBox="0 0 26 26" fill="none" xmlns="http://www.w3.org/2000/svg">
<path d="M22.1241 5.4915C20.4336 5.3235 18.7431 5.1975 17.0421 5.103V5.0925L16.8111 3.7275C16.6536 2.7615 16.4226 1.3125 13.9656 1.3125H11.2146C8.76813 1.3125 8.53713 2.6985 8.36913 3.717L8.14863 5.061C7.17213 5.124 6.19563 5.187 5.21913 5.2815L3.07713 5.4915C2.63613 5.5335 2.32113 5.922 2.36313 6.3525C2.40513 6.783 2.78313 7.098 3.22413 7.056L5.36613 6.846C10.8681 6.3 16.4121 6.51 21.9771 7.0665C22.0086 7.0665 22.0296 7.0665 22.0611 7.0665C22.4601 7.0665 22.8066 6.762 22.8486 6.3525C22.8801 5.922 22.5651 5.5335 22.1241 5.4915Z" fill="white"/>
<path d="M20.1925 8.54671C19.9405 8.28421 19.594 8.13721 19.237 8.13721H5.96501C5.60801 8.13721 5.25101 8.28421 5.00951 8.54671C4.76801 8.80921 4.63151 9.16621 4.65251 9.53371L5.30351 20.3067C5.41901 21.9027 5.56601 23.8977 9.23051 23.8977H15.9715C19.636 23.8977 19.783 21.9132 19.8985 20.3067L20.5495 9.54421C20.5705 9.16621 20.434 8.80921 20.1925 8.54671ZM14.344 18.6372H10.8475C10.417 18.6372 10.06 18.2802 10.06 17.8497C10.06 17.4192 10.417 17.0622 10.8475 17.0622H14.344C14.7745 17.0622 15.1315 17.4192 15.1315 17.8497C15.1315 18.2802 14.7745 18.6372 14.344 18.6372ZM15.226 14.4372H9.97601C9.54551 14.4372 9.18851 14.0802 9.18851 13.6497C9.18851 13.2192 9.54551 12.8622 9.97601 12.8622H15.226C15.6565 12.8622 16.0135 13.2192 16.0135 13.6497C16.0135 14.0802 15.6565 14.4372 15.226 14.4372Z" fill="white"/>
</svg>
